# xmcd
#
# Track frame offsets:
#	150
#	16163
#	36791
#	57857
#	75757
#	91357
#
# Disc length: 1344 seconds
#
# Revision: 0
# Processed by: cddbd v1.5.2PL0 Copyright (c) Steve Scherf et al.
# Submitted via: dBpowerAMP V4.0
#
DISCID=34053e06
DTITLE=Travis Howard - Travis Howard
DYEAR=2006
DGENRE=Country
TTITLE0=Better in TX
TTITLE1=Train Wreck
TTITLE2=Long Way to Better
TTITLE3=Grady Cole
TTITLE4=Long Drive
TTITLE5=Not Me
EXTD=
EXTT0=
EXTT1=
EXTT2=
EXTT3=
EXTT4=
EXTT5=
PLAYORDER=
